<svg width="554" height="372" viewBox="0 0 554 372" fill="none" xmlns="http://www.w3.org/2000/svg">
<path d="M484.684 350.573H73.5807C-64.7638 329.358 37.2952 216.043 22.267 165.447C7.23887 114.851 -1.19437 45.9289 65.5974 26.5295C132.389 7.13009 178.11 49.9859 224.53 63.8801C270.95 77.7743 302.008 61.7829 372.14 38.7133C442.271 15.6438 511.61 71.6658 546.676 147.428C574.728 208.038 515.297 325.231 484.684 350.573Z" fill="#FFEFE4"/>
<path d="M93.5675 35.2133C88.1611 38.3556 86.3504 39.9367 85.0061 44.4557C86.4222 48.0167 88.5857 51.2304 91.6261 54.2336C95.521 50.2458 98.1405 50.0099 103.597 48.0003C98.6825 51.3936 96.283 52.0428 94.2591 56.603C99.2414 60.7091 106.051 64.467 115.055 68.2654C116.057 58.438 115.243 48.8633 113.453 42.9321C110.023 42.9946 108.348 44.3008 106.436 46.0629C107.168 43.2414 108.855 42.5737 112.181 40.8181C109.692 34.9313 106.829 31.7985 101.449 28.3442C98.2128 29.3585 96.9637 32.1488 95.3625 33.5743C95.7552 31.6473 96.5749 28.6103 99.5648 27.1938C95.3107 24.7205 88.5356 23.923 82.8853 21.7117C81.5425 29.6484 82.4314 34.9171 83.7992 40.6284C85.4216 37.7341 87.5024 37.0213 93.5675 35.2133Z" fill="#7C8E0E"/>
<path fill-rule="evenodd" clip-rule="evenodd" d="M91.9026 35.7149C89.3839 32.892 86.6045 29.8534 83.5317 26.4941L83.53 26.4923C83.1612 26.089 82.7881 25.6812 82.4108 25.2686C82.5184 24.141 82.6743 22.9597 82.8853 21.7125C84.2952 22.2643 85.7752 22.728 87.2685 23.1517C87.3631 23.2551 87.4575 23.3581 87.5516 23.4609L87.5537 23.4632C90.4857 26.6663 93.1761 29.6055 95.6456 32.372C95.5278 32.8006 95.4375 33.2079 95.3627 33.5748C95.6039 33.3601 95.8371 33.1145 96.0703 32.8486C100.148 37.4309 103.614 41.5476 106.565 45.6224C106.519 45.7634 106.477 45.9102 106.437 46.0633C106.527 45.9804 106.616 45.8984 106.706 45.8176C110.36 50.8908 113.218 55.9096 115.466 61.693C115.415 63.845 115.282 66.0488 115.056 68.2654C114.018 67.8274 113.008 67.3898 112.028 66.9523C109.787 60.0859 106.798 54.4975 102.593 48.6812C102.916 48.4665 103.25 48.2404 103.598 48.0006C103.186 48.1523 102.79 48.2939 102.409 48.4277C99.5878 44.5541 96.2259 40.57 92.1854 36.0322C92.6183 35.77 93.0782 35.4983 93.5677 35.2138C92.9758 35.3902 92.4219 35.5563 91.9026 35.7149Z" fill="#5B6A00"/>
<path d="M85.363 53.3523C83.0502 57.7374 82.498 59.5608 83.4952 63.1591C85.9451 64.9521 88.7513 66.1974 92.0586 66.9321C92.9996 62.6162 94.6614 61.3548 97.4845 57.7085C95.6078 62.055 94.2677 63.501 94.8253 67.4132C99.902 68.0702 106.061 67.7242 113.712 66.481C110.251 59.4652 105.676 53.3837 101.978 50.1577C99.6985 51.644 99.1224 53.2255 98.5783 55.213C97.883 53.0119 98.7365 51.8533 100.234 49.2749C96.0844 46.373 92.8423 45.4763 87.7723 45.4241C86.0232 47.4677 86.3572 49.8659 85.8803 51.4966C85.3338 50.0383 84.6074 47.6554 86.0216 45.4458C82.1213 45.5777 77.2311 47.8957 72.5024 48.7913C74.9381 54.6821 77.752 57.8431 81.0738 61.0993C80.9471 58.474 82.0462 57.1195 85.363 53.3523Z" fill="#97AB1E"/>
<path fill-rule="evenodd" clip-rule="evenodd" d="M84.4436 54.4017C81.5661 53.568 78.4228 52.6991 74.948 51.7386C74.5358 51.6247 74.1189 51.5095 73.6973 51.3928C73.2914 50.5841 72.8955 49.7178 72.5091 48.7829C73.6997 48.5574 74.9007 48.2416 76.0934 47.8933C76.1915 47.9204 76.2894 47.9474 76.387 47.9743L76.387 47.9743C79.6997 48.8887 82.7399 49.7279 85.5598 50.5443C85.6626 50.8898 85.7757 51.2084 85.8819 51.4921C85.9553 51.2409 86.0094 50.9715 86.0549 50.688C90.7176 52.0462 94.7754 53.3493 98.4701 54.8408C98.5001 54.9616 98.5352 55.0854 98.5754 55.2126C98.6026 55.113 98.6299 55.0144 98.6575 54.9168C103.235 56.7788 107.258 58.9384 111.192 61.8629C112.072 63.3413 112.917 64.8907 113.705 66.4885C112.814 66.6332 111.944 66.7657 111.093 66.8858C106.706 63.2267 102.352 60.7375 97.0858 58.6063C97.2149 58.321 97.3473 58.0225 97.4825 57.709C97.2652 57.9899 97.0548 58.2567 96.8511 58.5118C93.3278 57.1001 89.3943 55.8417 84.772 54.4971C84.955 54.1336 85.1526 53.7519 85.3652 53.3484C85.0365 53.7221 84.7296 54.072 84.4436 54.4017Z" fill="#5B6A00"/>
<path d="M450.039 144.022H440.407V145.226H450.039V144.022Z" fill="#758082"/>
<path d="M452.046 144.423C452.046 145.753 451.506 146.831 450.841 146.831C450.177 146.831 449.637 145.753 449.637 144.423C449.637 143.093 450.177 142.015 450.841 142.015C451.506 142.015 452.046 143.093 452.046 144.423Z" fill="#8D8B8B"/>
<path d="M443.69 137.281H448.465V339.025H443.69V137.281Z" fill="#C4C4C4"/>
<path d="M467.565 366.5C467.565 369.034 465.139 371.854 462.616 371.854C457.285 371.854 456.523 368.03 456.904 365.735C457.285 363.441 459.19 361.529 461.473 361.146C463.757 360.764 467.184 363.441 467.565 366.5Z" fill="#2C2A2A"/>
<path d="M467.565 367.377C467.565 369.849 465.56 371.853 463.088 371.853C460.616 371.853 458.612 369.849 458.612 367.377C458.612 364.904 460.616 362.9 463.088 362.9C465.56 362.9 467.565 364.904 467.565 367.377Z" fill="black"/>
<path d="M452.642 346.202C452.642 348.173 450.756 350.366 448.793 350.366C444.647 350.366 444.055 347.392 444.351 345.607C444.647 343.823 446.129 342.336 447.905 342.038C449.681 341.741 452.346 343.823 452.642 346.202Z" fill="#2C2A2A"/>
<path d="M452.643 346.785C452.643 348.763 451.039 350.366 449.061 350.366C447.083 350.366 445.48 348.763 445.48 346.785C445.48 344.807 447.083 343.203 449.061 343.203C451.039 343.203 452.643 344.807 452.643 346.785Z" fill="black"/>
<path d="M443.692 337.941L446.682 336.042L462.499 360.943L459.51 362.842L443.692 337.941Z" fill="#C4C4C4"/>
<path fill-rule="evenodd" clip-rule="evenodd" d="M443.715 339.166L443.715 337.932L459.515 362.783L462.477 360.891L462.477 362.207L459.515 364.182L443.715 339.166Z" fill="#9B9B9B"/>
<path d="M90.9355 339.622V334.847H448.465V339.622H90.9355Z" fill="#C4C4C4"/>
<path d="M88.7641 144.022H98.3965V145.226H88.7641V144.022Z" fill="#758082"/>
<path d="M86.7574 144.423C86.7574 145.753 87.2965 146.831 87.9615 146.831C88.6265 146.831 89.1655 145.753 89.1655 144.423C89.1655 143.093 88.6265 142.015 87.9615 142.015C87.2965 142.015 86.7574 143.093 86.7574 144.423Z" fill="#8D8B8B"/>
<path d="M95.1135 137.281H90.3385V339.025H95.1135V137.281Z" fill="#C4C4C4"/>
<path d="M71.2386 366.5C71.2386 369.034 73.6643 371.854 76.1876 371.854C81.5178 371.854 82.2798 368.03 81.8991 365.735C81.5184 363.441 79.6136 361.529 77.3298 361.146C75.046 360.764 71.6194 363.441 71.2386 366.5Z" fill="#2C2A2A"/>
<path d="M71.2385 367.377C71.2385 369.849 73.2427 371.853 75.7151 371.853C78.1874 371.853 80.1917 369.849 80.1917 367.377C80.1917 364.904 78.1874 362.9 75.7151 362.9C73.2427 362.9 71.2385 364.904 71.2385 367.377Z" fill="black"/>
<path d="M86.1606 346.202C86.1606 348.173 88.0472 350.366 90.0098 350.366C94.1555 350.366 94.7482 347.392 94.452 345.607C94.1559 343.823 92.6744 342.336 90.8981 342.038C89.1218 341.741 86.4567 343.823 86.1606 346.202Z" fill="#2C2A2A"/>
<path d="M86.1607 346.785C86.1607 348.763 87.7641 350.366 89.742 350.366C91.7199 350.366 93.3232 348.763 93.3232 346.785C93.3232 344.807 91.7199 343.203 89.742 343.203C87.7641 343.203 86.1607 344.807 86.1607 346.785Z" fill="black"/>
<path d="M95.1106 337.941L92.1212 336.042L76.304 360.943L79.2933 362.842L95.1106 337.941Z" fill="#C4C4C4"/>
<path fill-rule="evenodd" clip-rule="evenodd" d="M95.0875 339.166L95.0875 337.932L79.2882 362.783L76.3259 360.891L76.3259 362.207L79.288 364.182L95.0875 339.166Z" fill="#9B9B9B"/>
<path d="M98.1633 47.4023H441.387V243.36H98.1633V47.4023Z" fill="#5B6A00"/>
<path fill-rule="evenodd" clip-rule="evenodd" d="M429.604 59.3395H110.256V231.422H429.604V59.3395ZM98.3184 47.402V243.36H441.542V47.402H98.3184Z" fill="#AD6333"/>
<mask id="mask0_12:567" style="mask-type:alpha" maskUnits="userSpaceOnUse" x="98" y="47" width="344" height="197">
<path fill-rule="evenodd" clip-rule="evenodd" d="M429.604 59.3395H110.256V231.307H429.604V59.3395ZM98.3184 47.402V243.245H441.542V47.402H98.3184Z" fill="#794320"/>
</mask>
<g mask="url(#mask0_12:567)">
<path d="M434.98 41.2043C435.112 41.3398 435.243 41.4769 435.375 41.6156L463.29 70.7093L489.027 275.059C326.887 268.866 23.1969 254.951 105.554 248.832C208.499 241.182 296.003 183.265 389.941 137.369C464.484 100.948 451.497 58.6499 435.375 41.6156L434.98 41.2043Z" fill="#794320"/>
</g>
<path fill-rule="evenodd" clip-rule="evenodd" d="M381.009 46.7109C380.708 46.8504 380.556 47.2643 380.669 47.6355L396.906 100.885L396.909 100.893C403.746 121.8 409.841 135.244 416.356 146.144C422.081 155.723 428.125 163.325 435.238 172.272C436.211 173.495 437.204 174.744 438.218 176.026C438.443 176.31 438.812 176.316 439.042 176.039C439.273 175.762 439.277 175.308 439.053 175.024C438.036 173.739 437.042 172.489 436.07 171.266C428.951 162.312 422.968 154.785 417.294 145.292C410.852 134.515 404.802 121.186 397.992 100.364L381.76 47.1304C381.646 46.7592 381.31 46.5714 381.009 46.7109Z" fill="#7C8E0E"/>
<path d="M386.812 65.7717C386.362 57.9699 389.758 59.7443 392.37 55.8649C392.043 63.0623 390.967 65.4311 386.812 65.7717Z" fill="#97AB1E"/>
<path d="M394.098 88.3834C393.648 80.5816 397.044 82.356 399.656 78.4766C399.329 85.674 398.253 88.0428 394.098 88.3834Z" fill="#97AB1E"/>
<path d="M403.617 117.646C403.167 109.845 406.564 111.619 409.175 107.74C408.848 114.937 407.772 117.306 403.617 117.646Z" fill="#97AB1E"/>
<path d="M416.678 145.641C416.227 137.84 419.624 139.614 422.236 135.735C421.909 142.932 420.833 145.301 416.678 145.641Z" fill="#97AB1E"/>
<path d="M433.016 168.204C432.566 160.402 435.962 162.177 438.574 158.297C438.247 165.495 437.171 167.863 433.016 168.204Z" fill="#97AB1E"/>
<path d="M399.322 107.342C394.903 109.922 395.071 106.257 392.153 104.889C396.417 103.203 398.067 103.553 399.322 107.342Z" fill="#97AB1E"/>
<path d="M390.855 80.1747C386.436 82.755 386.604 79.0892 383.686 77.722C387.951 76.0353 389.601 76.3854 390.855 80.1747Z" fill="#97AB1E"/>
<path d="M383.159 55.4426C378.74 58.0229 378.908 54.3572 375.99 52.99C380.255 51.3032 381.905 51.6534 383.159 55.4426Z" fill="#97AB1E"/>
<path d="M408.678 130.583C405.245 134.873 404.382 131.359 401.261 131.307C404.798 127.921 406.446 127.553 408.678 130.583Z" fill="#97AB1E"/>
<path d="M429.18 164.418C425.517 168.408 424.852 164.829 421.741 164.514C425.458 161.434 427.122 161.206 429.18 164.418Z" fill="#97AB1E"/>
<mask id="mask1_12:567" style="mask-type:alpha" maskUnits="userSpaceOnUse" x="359" y="213" width="40" height="42">
<path d="M394.453 254.209L396.919 236.511L398.082 228.091L363.223 213.097L359.477 215.718L394.453 254.209Z" fill="#C4C4C4"/>
</mask>
<g mask="url(#mask1_12:567)">
<path d="M385.683 224.11L391.224 223.183L395.083 227.244L393.479 234.426C393.479 234.426 384.512 236.974 383.339 236.637C382.166 236.3 362.539 219.762 362.539 219.762C360.381 219.492 358.482 219.311 357.616 218.434L352.698 204.125C353.297 203.311 354.314 202.785 356.332 201.825L360.955 207.8C358.675 203.462 357.489 201.068 359.935 198.649C361.376 201.572 362.863 203.517 366.28 207.332C367.215 210.115 365.245 211.2 364.6 213.905L385.683 224.11Z" fill="#FCC29D"/>
<path d="M391.148 223.09L385.619 224.011L365.1 213.119C365.743 210.427 367.187 210.074 366.254 207.304C362.844 203.506 361.36 201.57 359.922 198.659C357.723 200.827 358.464 202.975 360.296 206.536L362.38 209.176L362.573 214.634C367.566 222.132 371.651 224.341 383.31 230.828C387.565 231.31 390.901 232.281 393.783 232.058L395 227.134L391.148 223.09Z" fill="#FFD3B7"/>
<path d="M355.93 213.796L356.042 213.453L357.805 210.889L359.841 206.353L356.326 201.82C354.528 202.691 353.583 203.204 352.475 204.346L355.93 213.796Z" fill="#FFD3B7"/>
</g>
<mask id="mask2_12:567" style="mask-type:alpha" maskUnits="userSpaceOnUse" x="421" y="228" width="39" height="40">
<path d="M459.11 229.434L441.258 228.662L432.765 228.305L421.153 264.431L424.119 267.91L459.11 229.434Z" fill="#C4C4C4"/>
</mask>
<g mask="url(#mask2_12:567)">
<path d="M433.201 241.115L432.218 236.163L436.626 231.842L444.389 231.994C444.389 231.994 447.113 239.814 446.744 240.961C446.376 242.108 428.414 263.323 428.414 263.323C428.114 265.369 427.912 267.159 426.96 268.122L411.461 275.322C410.583 274.919 410.017 274.076 408.987 272.387L415.467 267.004C410.766 269.917 408.171 271.457 405.563 269.644C408.732 267.769 410.841 266.034 414.98 262.167C417.994 260.786 419.161 262.407 422.085 262.502L433.201 241.115Z" fill="#FCC29D"/>
<path d="M432.398 235.977L433.389 240.951L421.389 262.089C418.443 261.994 418.061 260.715 415.023 262.103C410.851 265.988 408.725 267.731 405.531 269.615C407.899 271.255 410.255 270.164 414.161 267.793L417.061 265.358L423.041 264.157C431.271 258.106 433.704 253.89 440.849 241.824C441.391 237.774 442.466 234.487 442.232 231.845L436.841 231.635L432.398 235.977Z" fill="#FFD3B7"/>
<path d="M422.1 270.497L421.725 270.457L418.923 269.295L413.959 268.25L408.982 272.371C409.931 273.88 410.489 274.665 411.737 275.482L422.1 270.497Z" fill="#FFD3B7"/>
</g>
<path d="M445.509 232.823C434.543 214.316 429.049 212.322 423.755 213.002C418.461 213.682 419.251 222.859 431.375 240.71C438.132 239.765 439.925 237.516 445.509 232.823Z" fill="#A6893E"/>
<path d="M429.99 298.692L434.105 290.588L417.896 288.219L415.527 298.692L426.624 337.47H436.973L429.99 298.692Z" fill="#FFD3B7"/>
<path d="M389.841 293.83L394.704 286.348L407.422 290.588L404.055 296.697L411.163 328.867L401.063 332.109L389.841 293.83Z" fill="#FFD3B7"/>
<path fill-rule="evenodd" clip-rule="evenodd" d="M402.501 288.947L407.422 290.588L404.055 296.697L411.163 328.867L401.063 332.109L400.177 329.086L406.3 327.121L399.192 294.952L402.501 288.947ZM428.753 289.805L425.127 296.947L432.11 335.725H426.124L426.624 337.47H436.973L429.99 298.692L434.105 290.588L428.753 289.805Z" fill="#FCC29D"/>
<path d="M435.269 292.332C441.018 279.827 443.081 272.97 441.645 261.411H420.429C420.562 267.564 419.452 274.256 415.153 292.332C422.169 295.034 426.397 295.605 435.269 292.332Z" fill="#A6893E"/>
<path fill-rule="evenodd" clip-rule="evenodd" d="M441.745 261.436C443.183 272.961 441.118 279.798 435.359 292.267C433.45 292.968 431.756 293.492 430.203 293.856C435.863 281.566 437.886 274.745 436.459 263.308H420.494C420.508 262.671 420.507 262.051 420.494 261.436H441.745Z" fill="#997B2D"/>
<path d="M410.108 292.384C419.349 282.224 423.375 276.324 425.468 264.9L405.2 258.511C403.483 264.402 400.416 270.431 390.89 286.326C396.783 291.008 400.65 292.825 410.108 292.384Z" fill="#A6893E"/>
<path fill-rule="evenodd" clip-rule="evenodd" d="M425.469 264.9C423.375 276.324 419.349 282.224 410.108 292.384C407.941 292.485 406.067 292.468 404.396 292.324C413.315 282.468 417.243 276.576 419.302 265.341L404.507 260.676C404.764 259.941 404.992 259.225 405.201 258.511L425.469 264.9Z" fill="#997B2D"/>
<path d="M429.235 213.557C424.661 210.099 412.215 210.867 403.687 223.494L399.193 267.394C416.135 269.21 431.55 270.83 444.828 262.991C441.829 235.094 433.808 217.016 429.235 213.557Z" fill="#C1A764"/>
<path d="M378.296 171.234C408.988 179.43 426.646 182.24 456.974 181.708C441.287 169.442 433.816 166.808 421.652 162.759C407.105 160 397.644 161.26 378.296 171.234Z" fill="#4F5B00"/>
<path d="M448.371 175.472C448.076 180.621 447.045 185.777 444.827 191.333L402.558 190.646C399.753 181.12 398.709 175.483 399.361 170.484L400.34 166.743L430.046 155.916L448.371 175.472Z" fill="#652C08"/>
<path d="M386.198 188.129C386.921 183.535 388.981 186.871 389.92 189.114L391.413 197.54C389.373 196.317 385.474 192.723 386.198 188.129Z" fill="#FCC29D"/>
<path d="M433.239 207.346C437.208 203.301 439.289 199.752 439.824 185.803C442.934 168.168 439.379 163.477 427.697 154.466C408.098 152.133 400.08 157.033 393.499 181.907C391.266 197.467 391.857 201.105 394.297 203.768C396.699 206.798 401.063 210.538 409.916 214.404C418.395 215.152 427.757 211.896 433.239 207.346Z" fill="#FFD3B7"/>
<path d="M447.518 191.351C445.502 185.884 441.973 189.4 440.461 191.841L438.712 201.374C442.488 200.311 449.534 196.819 447.518 191.351Z" fill="#FCC29D"/>
<path d="M427.259 172.286C431.437 180.507 431.954 183.339 434.929 184.793C434.929 198.404 434.929 205.797 434.929 215.864C440.768 196.208 444.345 183.989 444.954 161.91L395.204 155.302C392.261 160.456 387.161 167.163 387.818 176.999C388.472 193.19 389.31 198.178 392.218 212.246C392.396 200.697 390.967 198.31 396.887 179.523L395.206 183.147C398.438 180.73 401.901 178.606 404.998 170.813C411.66 174.325 415.504 176.41 418.455 176.002C417.819 175.132 417.496 174.567 417.473 172.255C420.642 175.394 422.824 177.079 429.222 179.623C428.275 178.062 427.832 176.548 427.259 172.286Z" fill="#743A15"/>
<path d="M378.258 171.262C410.365 165.955 427.396 169.587 456.946 181.69L450.997 172.588C449.187 157.727 450.997 142.584 419.268 137.846C397.821 139.841 393.96 144.99 386.976 162.749L378.258 171.262Z" fill="#695821"/>
<path d="M386.976 162.748C412.64 161.299 426.615 162.761 450.999 172.588L450.49 168.163C426.486 157.621 413.208 155.963 388.796 158.359L386.976 162.748Z" fill="#C1A764"/>
<path d="M426.384 198.536C428.671 198.526 431.231 197.695 432.467 195.678L433.086 192.843L433.079 191.489L432.433 189.645L431.025 187.804L428.093 186.093L423.902 186.48L421.002 187.551C421.002 187.551 419.901 188.81 419.272 190.697C418.519 192.301 418.953 194.787 419.098 195.101C419.244 195.416 419.13 196.474 420.786 197.328C422.443 198.183 424.097 198.545 426.384 198.536Z" fill="#F8F4F4"/>
<path d="M422.123 192.787C422.134 194.963 423.901 196.719 426.071 196.708C428.24 196.698 429.99 194.926 429.979 192.75C429.968 190.574 428.201 188.818 426.031 188.829C423.862 188.839 422.112 190.611 422.123 192.787Z" fill="#652C08"/>
<path d="M422.605 191.185C422.608 191.797 423.105 192.291 423.715 192.288C424.325 192.285 424.818 191.786 424.815 191.174C424.812 190.562 424.314 190.068 423.704 190.071C423.094 190.074 422.602 190.573 422.605 191.185Z" fill="#F2F1F1"/>
<path d="M433.069 189.888C433.904 191.731 433.136 194.229 432.281 196.171C432.785 193.859 432.942 191.612 432.11 190.262C431.278 188.911 430.17 187.192 427.283 186.712C424.397 186.232 422.54 186.674 419.603 188.591C422.245 186.296 424.666 185.245 427.69 185.848C430.715 186.451 432.235 188.045 433.069 189.888Z" fill="#652C08"/>
<path fill-rule="evenodd" clip-rule="evenodd" d="M429.219 177.754C430.602 178.113 431.931 178.911 433.717 180.356L435.293 178.396C433.413 176.874 431.749 175.81 429.849 175.316C427.937 174.82 425.93 174.936 423.419 175.491L423.96 177.95C426.28 177.437 427.847 177.398 429.219 177.754Z" fill="#652C08"/>
<path d="M419.284 206.103C415.904 211.273 407.406 209.983 404.915 204.273L419.284 206.103Z" fill="#FC8D8D"/>
<path d="M399.643 197.017C397.693 196.778 395.607 195.696 394.791 193.568L394.598 190.691L394.764 189.347L395.533 187.581L396.951 185.894L399.654 184.49L403.184 185.296L406.126 186.932C406.126 186.932 406.869 188.901 406.999 189.925C407.13 190.948 406.999 191.92 406.78 193.553C406.78 194.04 406.075 195.699 404.561 196.381C403.046 197.063 401.593 197.257 399.643 197.017Z" fill="#F8F4F4"/>
<path d="M394.765 187.989C393.864 189.763 394.343 192.31 394.947 194.309C394.688 191.968 394.735 189.717 395.592 188.434C396.449 187.15 397.584 185.521 400.208 185.26C402.831 184.999 404.455 185.58 406.924 187.711C404.751 185.224 402.672 183.996 399.915 184.368C397.158 184.741 395.665 186.215 394.765 187.989Z" fill="#652C08"/>
<path d="M398.529 190.82C398.171 192.799 399.454 194.689 401.394 195.04C403.335 195.392 405.198 194.072 405.556 192.093C405.914 190.114 404.631 188.225 402.691 187.873C400.75 187.522 398.887 188.841 398.529 190.82Z" fill="#652C08"/>
<path d="M399.039 189.748C398.93 190.351 399.328 190.927 399.929 191.036C400.529 191.145 401.104 190.744 401.213 190.142C401.322 189.54 400.924 188.963 400.323 188.855C399.723 188.746 399.148 189.146 399.039 189.748Z" fill="#F2F1F1"/>
<path fill-rule="evenodd" clip-rule="evenodd" d="M402.058 175.279C400.638 175.432 399.207 176.027 397.228 177.196L395.955 175.026C398.038 173.796 399.839 172.986 401.791 172.776C403.754 172.564 405.723 172.972 408.126 173.888L407.232 176.242C405.011 175.395 403.467 175.127 402.058 175.279Z" fill="#652C08"/>
<path d="M421.987 201.32C421.998 202.437 423.512 203.327 425.368 203.308C427.224 203.289 428.72 202.369 428.709 201.251C428.698 200.134 427.184 199.244 425.328 199.263C423.471 199.282 421.976 200.202 421.987 201.32Z" fill="#FF9798" fill-opacity="0.5"/>
<path d="M396.124 199.677C396.045 200.791 397.482 201.802 399.334 201.934C401.185 202.066 402.751 201.27 402.83 200.156C402.909 199.041 401.472 198.031 399.621 197.899C397.769 197.766 396.203 198.562 396.124 199.677Z" fill="#FF9798" fill-opacity="0.5"/>
<path d="M424.184 144.424C424.134 144.895 423.995 145.329 423.765 145.728C423.537 146.121 423.261 146.477 422.939 146.796C422.622 147.116 422.28 147.401 421.911 147.651C421.549 147.896 421.207 148.106 420.884 148.28C421.302 148.362 421.711 148.51 422.109 148.723C422.514 148.932 422.867 149.202 423.168 149.534C423.474 149.861 423.708 150.244 423.87 150.684C424.037 151.119 424.092 151.602 424.036 152.131C423.989 152.565 423.884 152.95 423.72 153.286C423.562 153.617 423.366 153.909 423.131 154.162C422.896 154.41 422.637 154.618 422.352 154.786C422.072 154.955 421.791 155.088 421.509 155.186C421.226 155.285 420.95 155.349 420.68 155.379C420.414 155.416 420.181 155.423 419.981 155.402C419.474 155.348 419.059 155.242 418.734 155.085C418.414 154.928 418.164 154.751 417.982 154.556C417.806 154.355 417.689 154.152 417.63 153.948C417.572 153.744 417.551 153.568 417.567 153.42C417.591 153.192 417.661 152.98 417.778 152.784C417.901 152.583 418.053 152.406 418.235 152.254C418.417 152.102 418.622 151.974 418.852 151.87C419.083 151.761 419.318 151.684 419.557 151.64L419.696 151.919C419.344 152.064 419.074 152.271 418.885 152.54C418.697 152.804 418.587 153.078 418.557 153.364C418.54 153.523 418.554 153.693 418.599 153.874C418.649 154.051 418.733 154.218 418.85 154.375C418.972 154.532 419.128 154.669 419.318 154.786C419.514 154.897 419.75 154.968 420.024 154.997C420.425 155.039 420.808 155.005 421.172 154.894C421.536 154.777 421.859 154.6 422.141 154.362C422.428 154.12 422.662 153.826 422.843 153.481C423.029 153.137 423.144 152.756 423.189 152.338C423.235 151.909 423.185 151.521 423.041 151.174C422.902 150.828 422.696 150.528 422.424 150.274C422.158 150.016 421.839 149.808 421.466 149.651C421.099 149.494 420.709 149.394 420.298 149.35C420.129 149.332 419.961 149.325 419.795 149.329C419.63 149.327 419.472 149.335 419.321 149.351C419.176 149.362 419.043 149.375 418.925 149.389C418.806 149.403 418.714 149.415 418.649 149.424L418.578 149.336L419.427 148.278C419.487 148.269 419.555 148.257 419.631 148.244C419.696 148.235 419.774 148.227 419.866 148.22C419.958 148.209 420.059 148.204 420.171 148.205C420.441 148.078 420.726 147.913 421.025 147.709C421.33 147.501 421.612 147.255 421.872 146.972C422.137 146.685 422.364 146.355 422.553 145.985C422.747 145.615 422.869 145.202 422.917 144.747C422.999 143.98 422.879 143.381 422.556 142.95C422.234 142.52 421.735 142.269 421.06 142.198C420.669 142.156 420.267 142.199 419.853 142.327C419.44 142.449 419.03 142.662 418.624 142.967C418.224 143.272 417.834 143.67 417.457 144.16C417.084 144.65 416.741 145.237 416.428 145.921C416.121 146.606 415.85 147.393 415.616 148.284C415.383 149.174 415.207 150.17 415.09 151.27C415.041 151.726 415.015 152.148 415.011 152.539C415.012 152.929 415.037 153.272 415.086 153.566C415.14 153.855 415.22 154.086 415.324 154.258C415.428 154.429 415.562 154.524 415.726 154.541C415.89 154.558 416.032 154.453 416.152 154.225C416.278 153.992 416.386 153.685 416.474 153.304C416.569 152.918 416.647 152.485 416.709 152.004C416.776 151.524 416.835 151.041 416.887 150.554C416.966 149.813 417.03 149.116 417.078 148.463C417.127 147.804 417.166 147.217 417.194 146.701C417.227 146.185 417.252 145.754 417.268 145.408C417.283 145.062 417.294 144.83 417.302 144.713L418.249 144.533C418.271 144.578 418.295 144.709 418.32 144.926C418.345 145.142 418.362 145.428 418.372 145.782C418.383 146.131 418.38 146.538 418.363 147.001C418.351 147.46 418.317 147.955 418.261 148.484C418.165 149.378 418.055 150.161 417.93 150.833C417.811 151.5 417.68 152.078 417.537 152.566C417.395 153.048 417.246 153.447 417.09 153.762C416.939 154.078 416.782 154.327 416.618 154.507C416.461 154.683 416.301 154.803 416.14 154.866C415.983 154.935 415.831 154.962 415.683 154.946C415.361 154.912 415.083 154.77 414.848 154.52C414.618 154.276 414.432 153.965 414.291 153.586C414.15 153.202 414.057 152.772 414.012 152.296C413.967 151.815 413.971 151.326 414.024 150.828C414.101 150.114 414.245 149.383 414.458 148.635C414.671 147.886 414.946 147.164 415.282 146.466C415.618 145.763 416.011 145.106 416.46 144.496C416.91 143.88 417.409 143.355 417.957 142.92C418.505 142.481 419.098 142.15 419.736 141.929C420.379 141.703 421.056 141.627 421.769 141.703C422.175 141.746 422.536 141.84 422.851 141.986C423.172 142.127 423.438 142.316 423.647 142.552C423.858 142.783 424.01 143.056 424.104 143.372C424.199 143.687 424.226 144.037 424.184 144.424Z" fill="#C1A764"/>
<path d="M419.392 322.258C424.006 317.146 430.741 317.177 435.976 320.263L439.467 348.94C436.128 352.71 432.867 353.073 426.624 353.179C426.624 353.179 420.514 352.183 412.908 346.448C405.302 340.712 406.425 336.847 410.789 335.6C415.153 334.353 423.632 337.219 423.632 337.219L419.392 322.258Z" fill="#867643"/>
<path d="M394.076 237.349C413.543 228.192 416.049 222.912 415.876 217.577C415.702 212.242 406.492 212.157 387.569 222.528C387.868 229.344 389.936 231.343 394.076 237.349Z" fill="#A6893E"/>
<path fill-rule="evenodd" clip-rule="evenodd" d="M433.461 352.606L428.918 318.148C425.5 318.043 422.085 319.275 419.392 322.258L423.632 337.219C423.632 337.219 415.153 334.353 410.789 335.6C406.425 336.847 405.303 340.712 412.909 346.448C420.514 352.183 426.624 353.18 426.624 353.18C429.404 353.132 431.593 353.034 433.461 352.606Z" fill="#695821"/>
<path d="M439.225 346.953L439.467 348.94C436.128 352.71 432.867 353.073 426.624 353.18C426.624 353.18 420.514 352.183 412.908 346.448C408.339 343.002 406.92 340.231 407.461 338.298C408.032 339.964 409.682 341.991 412.784 344.33C420.39 350.066 426.499 351.062 426.499 351.062C432.669 350.957 435.926 350.601 439.225 346.953Z" fill="#5F4725"/>
<path d="M388.718 350.188C391.337 351.061 397.447 351.56 405.676 348.193C409.217 346.745 413.157 343.206 413.656 342.707C414.155 342.208 417.521 338.218 417.896 337.47C418.27 336.722 418.426 334.684 418.145 333.831C417.823 332.855 417.397 332.358 417.397 332.358L410.539 328.368L385.477 347.694C385.477 347.694 386.1 349.315 388.718 350.188Z" fill="#322007"/>
<path d="M395.951 320.887C401.493 315.687 404.413 313.358 411.661 317.396C411.661 317.396 419.143 335.349 418.021 333.729C416.898 332.109 416.15 331.733 413.532 331.609C410.913 331.485 404.554 344.078 400.814 346.572C397.073 349.065 389.592 350.562 386.475 349.065C383.357 347.569 385.228 341.958 388.719 341.459C392.21 340.961 399.442 337.095 399.692 334.477C399.941 331.859 395.951 320.887 395.951 320.887Z" fill="#867643"/>
<path fill-rule="evenodd" clip-rule="evenodd" d="M408.594 336.675L403.765 315.517C401.192 316.09 398.957 318.066 395.951 320.887C395.951 320.887 399.941 331.858 399.691 334.477C399.442 337.095 392.21 340.961 388.719 341.459C385.227 341.958 383.357 347.569 386.474 349.065C389.592 350.562 397.073 349.065 400.813 346.572C402.547 345.416 404.844 342.09 407.069 338.867C407.584 338.121 408.095 337.381 408.594 336.675Z" fill="#695821"/>
<path d="M412.544 329.794C415.162 329.918 416.142 329.616 417.264 331.236C417.702 332.3 417.923 332.885 418.145 333.854C417.022 332.234 416.15 331.733 413.531 331.609C412.126 331.543 409.645 335.136 407.069 338.867L407.069 338.867C404.843 342.09 402.547 345.416 400.813 346.572C397.072 349.065 389.591 350.562 386.474 349.065C385.553 348.623 385.067 347.822 384.93 346.9C385.094 347.033 385.279 347.15 385.486 347.25C388.604 348.746 396.085 347.25 399.825 344.756C401.559 343.6 403.856 340.274 406.082 337.051L406.082 337.051C408.658 333.321 411.139 329.727 412.544 329.794Z" fill="#5F4725"/>
<path d="M335.309 185.238L336.419 184.124L363.089 210.701L361.978 211.815L335.309 185.238Z" fill="#FFBD5A"/>
<path d="M356.198 209.258C356.033 208.275 356.39 207.599 357.626 207.047L357.234 205.851C357.234 205.851 358.582 204.914 360.317 206.167C362.051 207.42 362.746 207.523 363.586 208.572C364.426 209.621 365.438 212.02 365.478 213.662C365.519 215.304 364.684 217.533 363.586 218.223C362.488 218.914 361.414 219.523 359.973 219.167C358.533 218.811 355.421 216.649 355.421 216.649C354.702 216.052 353.899 215.679 354.782 214.134C353.996 213.19 354.529 211.82 355.097 211.617C355.254 211.303 354.37 210.125 356.198 209.258Z" fill="#FFD3B7"/>
<path d="M363.748 211.145C363.905 210.202 358.872 208.786 358.872 208.786L362.647 215.707C362.647 215.707 363.59 212.089 363.748 211.145Z" fill="#FFD3B7"/>
<path d="M97.9102 259.661L115.711 260.74V351.361L98.4709 350.316C98.1559 350.297 97.9102 350.036 97.9102 349.721V259.661Z" fill="#C1A764"/>
<path d="M93.595 255.943C93.595 255.613 93.8622 255.346 94.1918 255.346H111.935V260.74H94.1918C93.8622 260.74 93.595 260.473 93.595 260.143V255.943Z" fill="#A58E53"/>
<path d="M111.935 255.346H181.462C181.791 255.346 182.059 255.613 182.059 255.943V260.143C182.059 260.473 181.791 260.74 181.462 260.74H111.935V255.346Z" fill="#DCC58B"/>
<path d="M115.171 260.74H177.743V350.764C177.743 351.094 177.475 351.361 177.146 351.361H115.171V260.74Z" fill="#F1DA9E"/>
<path fill-rule="evenodd" clip-rule="evenodd" d="M173.91 263.495H119.005V346.449H173.91V263.495ZM118.408 262.898V347.046H174.507V262.898H118.408Z" fill="#DCC58B"/>
<path d="M141.063 267.213H154.009V268.292H141.063V267.213Z" fill="#DCC58B"/>
<path d="M141.063 294.184H154.009V295.263H141.063V294.184Z" fill="#DCC58B"/>
<path d="M141.063 323.312H154.009V324.391H141.063V323.312Z" fill="#DCC58B"/>
<path d="M119.486 317.918H173.427V320.075H119.486V317.918Z" fill="#DCC58B"/>
<path d="M118.408 289.868H173.428V292.026H118.408V289.868Z" fill="#DCC58B"/>
<path d="M129.549 237.32H144.27V245.372H129.549V237.32Z" fill="white"/>
<path d="M129.549 236.169H144.871V237.55H129.549V236.169Z" fill="#DFDFDF"/>
<path fill-rule="evenodd" clip-rule="evenodd" d="M143.67 235.479H129.099V236.63H143.069V244.682H129.099V245.832H143.67V235.479Z" fill="#5B6A00"/>
<path d="M143.669 235.479H166.953V245.832H143.669V235.479Z" fill="#434E01"/>
<path d="M143.709 235.479H166.954V239.548H143.709V235.479Z" fill="#242B00"/>
<path d="M133.809 227.149H146.671V235.201H133.809V227.149Z" fill="white"/>
<path d="M133.81 225.998H147.196V227.379H133.81V225.998Z" fill="#DFDFDF"/>
<path fill-rule="evenodd" clip-rule="evenodd" d="M146.146 225.308H133.415V226.459H145.621V234.511H133.415V235.661H146.146V225.308Z" fill="#D73D41"/>
<path d="M145.994 225.308H169.278V235.661H145.994V225.308Z" fill="#BB3336"/>
<path d="M145.994 225.308H169.128V226.919H145.994V225.308Z" fill="#892224"/>
<path d="M127.557 222.414H142.278V225.324H127.557V222.414Z" fill="white"/>
<path d="M127.559 221.998H142.881V222.497H127.559V221.998Z" fill="#DFDFDF"/>
<path fill-rule="evenodd" clip-rule="evenodd" d="M141.678 221.748H127.106V222.164H141.077V225.074H127.106V225.49H141.678V221.748Z" fill="#FFBD5A"/>
<path d="M141.677 221.748H164.961V225.49H141.677V221.748Z" fill="#DA9F46"/>
<path d="M141.677 221.748H164.811V222.33H141.677V221.748Z" fill="#A77831"/>
<path d="M113.62 247.436H147.345C147.701 247.436 147.99 247.886 147.99 248.441V253.467C147.99 254.023 147.701 254.473 147.345 254.473H113.62V247.436Z" fill="#BDCFDD"/>
<path d="M147.555 247.436H169.308V254.473H147.555V247.436Z" fill="white"/>
<path fill-rule="evenodd" clip-rule="evenodd" d="M114.26 245.677C113.907 245.677 113.62 247.141 113.62 247.729L147.346 247.729C147.346 247.141 147.06 245.677 146.706 245.677H114.26ZM147.346 253.84H113.62V254.55C113.62 255.138 113.907 255.615 114.26 255.615H146.706C147.06 255.615 147.346 255.138 147.346 254.55V253.84Z" fill="#794320"/>
<path fill-rule="evenodd" clip-rule="evenodd" d="M169.972 245.677H146.492V247.729H169.332V253.84H146.492V255.614H169.972C170.326 255.614 170.613 255.138 170.613 254.55V246.741C170.613 246.153 170.326 245.677 169.972 245.677Z" fill="#C1A764"/>
<path d="M162.502 259.164V250.646H166.771V259.164L164.423 256.857L162.502 259.164Z" fill="#E8B798"/>
<path d="M95.6064 348.706C95.0977 349.363 94.8292 351.308 94.7585 352.198C94.8056 352.255 94.9564 352.369 95.1825 352.369H102.601C105.003 352.312 109.921 352.074 110.373 351.581C110.938 350.965 108.96 347.063 107.759 345.83C106.558 344.598 104.579 343.023 102.213 343.057C99.8457 343.092 96.2423 347.884 95.6064 348.706Z" fill="#758082"/>
<mask id="mask3_12:567" style="mask-type:alpha" maskUnits="userSpaceOnUse" x="94" y="343" width="17" height="10">
<path d="M95.6064 348.706C95.0977 349.363 94.8292 351.308 94.7585 352.198C94.8056 352.255 94.9564 352.369 95.1825 352.369H102.601C105.003 352.312 109.921 352.074 110.373 351.581C110.938 350.965 108.96 347.063 107.759 345.83C106.558 344.598 104.579 343.023 102.213 343.057C99.8457 343.092 96.2423 347.884 95.6064 348.706Z" fill="#758082"/>
</mask>
<g mask="url(#mask3_12:567)">
<path d="M95.8537 348.877C95.345 349.425 95.2178 350.269 95.2178 350.623C95.2178 350.76 95.2955 351.041 95.6064 351.068C95.995 351.102 97.0901 350.315 98.3619 350.109C99.6337 349.904 104.156 347.919 104.721 347.165C105.286 346.412 103.696 344.974 103.449 344.358C103.202 343.742 103.096 343.674 102.036 343.537C100.976 343.4 97.938 346.138 97.726 346.481C97.514 346.823 96.4896 348.192 95.8537 348.877Z" fill="#9FA9AB"/>
<path d="M104.827 345.488C104.499 344.976 103.744 343.822 102.849 342.852C103.437 342.852 105.011 343.742 106.593 345.933C108.176 348.124 108.548 350.452 108.536 351.342L100.34 352.472L95.112 352.369C94.6527 352.369 97.8322 351.718 101.294 350.931C104.12 349.356 106.911 348.74 104.827 345.488Z" fill="#566165"/>
<path d="M104.756 343.982C104.078 343.297 103.155 343.103 102.778 343.092L103.767 342.612L107.3 344.598L110.974 348.158L110.62 352.403L108.713 351.684C108.524 351.228 108.105 350.062 107.936 349.048C107.724 347.782 105.604 344.838 104.756 343.982Z" fill="#3F4A4C"/>
<path d="M101.753 350.999C103.276 350.367 105.427 348.432 105.569 347.508C110.055 351.616 109.773 351.753 108.501 352.026C107.483 352.246 100.517 352.494 97.4788 352.711C98.1382 352.46 100.27 351.616 101.753 350.999Z" fill="#3F4A4C"/>
</g>
<path d="M102.276 338.374C100.509 339.588 99.9145 340.206 99.4577 342.002C99.9001 343.436 100.586 344.737 101.558 345.96C102.839 344.396 103.689 344.322 105.467 343.561C103.858 344.879 103.078 345.12 102.4 346.927C103.996 348.607 106.186 350.161 109.087 351.748C109.457 347.829 109.238 343.996 108.685 341.612C107.573 341.61 107.024 342.119 106.396 342.809C106.646 341.687 107.196 341.433 108.283 340.757C107.503 338.385 106.59 337.111 104.862 335.689C103.809 336.07 103.391 337.175 102.865 337.733C103.001 336.965 103.281 335.758 104.257 335.215C102.89 334.194 100.697 333.823 98.8762 332.896C98.404 336.057 98.6676 338.17 99.0843 340.463C99.6237 339.318 100.301 339.05 102.276 338.374Z" fill="#7C8E0E"/>
<path fill-rule="evenodd" clip-rule="evenodd" d="M99.406 334.51L99.4059 334.51L99.4047 334.508C99.1994 334.222 98.99 333.931 98.7766 333.633C98.8052 333.394 98.8382 333.148 98.8758 332.896C99.0812 333.001 99.2912 333.098 99.5043 333.19C99.6865 333.444 99.8658 333.694 100.042 333.94C104.909 340.718 107.63 344.509 109.186 350.478C109.16 350.9 109.126 351.324 109.086 351.749C108.928 351.662 108.773 351.576 108.619 351.49C107.443 346.541 105.528 343.208 102.195 338.43C102.221 338.411 102.248 338.393 102.275 338.374C102.243 338.385 102.211 338.396 102.179 338.407C101.347 337.214 100.426 335.931 99.406 334.51Z" fill="#5B6A00"/>
<path d="M106.522 329.97C103.774 330.448 102.766 330.877 101.461 332.897C101.452 335.001 101.809 337.084 102.561 339.242C104.828 338.021 105.945 338.444 108.526 338.552C105.938 339.26 104.843 339.092 103.251 340.992C104.62 344.113 106.799 347.436 109.874 351.234C111.92 346.443 113.176 341.405 113.425 338.017C112.003 337.338 111.097 337.656 110.017 338.156C110.787 336.872 111.592 336.882 113.253 336.679C113.207 333.169 112.549 330.982 110.909 328.11C109.408 327.956 108.43 329.116 107.534 329.509C108.016 328.61 108.858 327.236 110.324 327.135C108.984 324.995 106.327 323.186 104.369 320.89C102.497 324.648 101.987 327.512 101.601 330.7C102.75 329.564 103.725 329.633 106.522 329.97Z" fill="#97AB1E"/>
<path fill-rule="evenodd" clip-rule="evenodd" d="M106.331 329.947C105.745 327.92 105.084 325.725 104.351 323.294C104.208 322.819 104.062 322.336 103.914 321.843C104.056 321.531 104.207 321.214 104.369 320.89C104.614 321.177 104.87 321.457 105.133 321.731C105.254 322.133 105.374 322.529 105.492 322.92C108.979 334.484 110.942 340.996 110.569 349.521C110.349 350.093 110.117 350.665 109.874 351.233C109.691 351.007 109.511 350.782 109.334 350.559C109.62 346.29 109.32 342.613 108.512 338.556C108.517 338.555 108.521 338.553 108.526 338.552C108.521 338.552 108.516 338.552 108.512 338.552C107.992 335.944 107.264 333.18 106.346 330.001C106.404 329.991 106.463 329.981 106.522 329.97C106.457 329.963 106.394 329.955 106.331 329.947Z" fill="#5B6A00"/>
<path d="M104.704 347.135C103.92 348.097 103.432 351 103.286 352.331C103.354 352.419 103.571 352.597 103.906 352.607L114.892 352.947C118.451 352.972 125.744 352.841 126.437 352.123C127.302 351.225 124.554 345.283 122.833 343.38C121.111 341.478 118.255 339.026 114.748 338.969C111.242 338.912 105.684 345.932 104.704 347.135Z" fill="#758082"/>
<mask id="mask4_12:567" style="mask-type:alpha" maskUnits="userSpaceOnUse" x="103" y="338" width="24" height="15">
<path d="M104.704 347.135C103.92 348.097 103.432 351 103.286 352.331C103.354 352.419 103.571 352.597 103.906 352.607L114.892 352.947C118.451 352.972 125.744 352.841 126.437 352.123C127.302 351.225 124.554 345.283 122.833 343.38C121.111 341.478 118.255 339.026 114.748 338.969C111.242 338.912 105.684 345.932 104.704 347.135Z" fill="#758082"/>
</mask>
<g mask="url(#mask4_12:567)">
<path d="M105.062 347.403C104.283 348.2 104.056 349.461 104.04 349.991C104.033 350.196 104.135 350.621 104.594 350.676C105.168 350.745 106.826 349.615 108.719 349.365C110.612 349.116 117.4 346.346 118.272 345.243C119.144 344.14 116.856 341.911 116.519 340.976C116.181 340.041 116.028 339.933 114.465 339.679C112.902 339.425 108.276 343.392 107.946 343.896C107.616 344.399 106.036 346.405 105.062 347.403Z" fill="#9FA9AB"/>
<path d="M118.507 342.733C118.045 341.95 116.98 340.185 115.7 338.69C116.571 338.717 118.86 340.123 121.102 343.481C123.344 346.838 123.786 350.345 123.728 351.679L111.539 352.997L103.802 352.604C103.122 352.583 107.86 351.753 113.023 350.731C117.281 348.5 121.442 347.704 118.507 342.733Z" fill="#566165"/>
<path d="M118.472 340.471C117.499 339.413 116.141 339.08 115.584 339.046L117.071 338.373L122.21 341.512L127.485 347.018L126.765 353.366L123.973 352.201C123.715 351.508 123.149 349.74 122.945 348.213C122.69 346.304 119.688 341.793 118.472 340.471Z" fill="#3F4A4C"/>
<path d="M113.7 350.855C115.983 349.977 119.259 347.174 119.511 345.795C125.964 352.159 125.539 352.352 123.643 352.704C122.127 352.986 111.799 353.04 107.29 353.225C108.279 352.879 111.474 351.711 113.7 350.855Z" fill="#3F4A4C"/>
</g>
<path d="M134.824 139.573V118.965H145.256C147.325 118.965 148.861 119.456 149.864 120.437C150.888 121.397 151.4 122.762 151.4 124.533C151.4 125.642 151.187 126.57 150.76 127.317C150.333 128.042 149.757 128.608 149.032 129.013C149.992 129.312 150.749 129.813 151.304 130.517C151.88 131.2 152.168 132.213 152.168 133.557C152.168 135.541 151.603 137.045 150.472 138.069C149.363 139.072 147.752 139.573 145.64 139.573H134.824ZM139.144 127.509H144.456C145.501 127.509 146.248 127.285 146.696 126.837C147.144 126.368 147.368 125.717 147.368 124.885C147.368 123.968 147.133 123.285 146.664 122.837C146.216 122.389 145.373 122.165 144.136 122.165H139.144V127.509ZM139.144 136.405H144.616C145.704 136.405 146.504 136.181 147.016 135.733C147.528 135.285 147.784 134.496 147.784 133.365C147.784 132.448 147.528 131.765 147.016 131.317C146.525 130.869 145.629 130.645 144.328 130.645H139.144V136.405ZM155.755 121.621V118.229H160.459V121.621H155.755ZM156.107 139.573V127.605H153.835L154.219 124.405H160.427V139.573H156.107ZM164.105 139.573V124.405H168.105L168.265 125.877C168.991 125.322 169.78 124.885 170.633 124.565C171.508 124.245 172.447 124.085 173.449 124.085C174.516 124.085 175.337 124.245 175.913 124.565C176.511 124.885 176.969 125.344 177.289 125.941C177.993 125.386 178.793 124.938 179.689 124.597C180.607 124.256 181.684 124.085 182.921 124.085C184.671 124.085 185.961 124.544 186.793 125.461C187.625 126.357 188.041 127.733 188.041 129.589V139.573H183.785V130.069C183.785 129.066 183.572 128.352 183.145 127.925C182.719 127.477 182.036 127.253 181.097 127.253C179.817 127.253 178.751 127.712 177.897 128.629C178.004 128.992 178.057 129.429 178.057 129.941V139.573H174.025V130.069C174.025 129.13 173.865 128.426 173.545 127.957C173.225 127.488 172.607 127.253 171.689 127.253C171.049 127.253 170.441 127.424 169.865 127.765C169.311 128.085 168.809 128.458 168.361 128.885V139.573H164.105ZM200.502 139.893C199.435 139.893 198.507 139.754 197.718 139.477C196.929 139.178 196.203 138.741 195.542 138.165L195.318 139.573H191.574V118.005H195.894V125.237C196.513 124.853 197.206 124.565 197.974 124.373C198.742 124.181 199.542 124.085 200.374 124.085C202.55 124.085 204.267 124.704 205.526 125.941C206.806 127.157 207.446 129.13 207.446 131.861C207.446 134.592 206.817 136.618 205.558 137.941C204.321 139.242 202.635 139.893 200.502 139.893ZM199.286 136.725C200.673 136.725 201.643 136.32 202.198 135.509C202.774 134.698 203.062 133.482 203.062 131.861C203.062 130.176 202.753 128.992 202.134 128.309C201.537 127.605 200.577 127.253 199.254 127.253C198.593 127.253 197.963 127.349 197.366 127.541C196.79 127.733 196.299 128.01 195.894 128.373V135.349C196.321 135.797 196.822 136.138 197.398 136.373C197.995 136.608 198.625 136.725 199.286 136.725ZM210.88 121.621V118.229H215.584V121.621H210.88ZM211.232 139.573V127.605H208.96L209.344 124.405H215.552V139.573H211.232ZM219.23 139.573V124.405H223.23L223.39 125.845C224.009 125.376 224.788 124.97 225.726 124.629C226.686 124.266 227.689 124.085 228.734 124.085C230.74 124.085 232.201 124.554 233.118 125.493C234.036 126.432 234.494 127.882 234.494 129.845V139.573H230.174V130.069C230.174 129.045 229.961 128.32 229.534 127.893C229.129 127.466 228.361 127.253 227.23 127.253C226.569 127.253 225.897 127.402 225.214 127.701C224.553 128 223.998 128.373 223.55 128.821V139.573H219.23ZM244.411 145.205C243.281 145.205 242.118 145.13 240.924 144.981C239.75 144.832 238.758 144.618 237.948 144.341V141.109C238.801 141.386 239.804 141.6 240.956 141.749C242.108 141.92 243.185 142.005 244.188 142.005C245.66 142.005 246.726 141.92 247.388 141.749C248.049 141.6 248.38 141.322 248.38 140.917C248.38 140.576 248.23 140.341 247.932 140.213C247.654 140.085 247.057 140.021 246.14 140.021H242.012C239.302 140.021 237.948 139.018 237.948 137.013C237.948 136.394 238.118 135.829 238.46 135.317C238.801 134.805 239.345 134.4 240.092 134.101C238.364 133.226 237.5 131.754 237.5 129.685C237.5 127.722 238.108 126.304 239.324 125.429C240.54 124.533 242.342 124.085 244.732 124.085C245.222 124.085 245.756 124.128 246.332 124.213C246.929 124.277 247.377 124.341 247.676 124.405H253.372L253.276 127.125H250.876C251.537 127.744 251.868 128.608 251.868 129.717C251.868 131.274 251.377 132.522 250.396 133.461C249.414 134.378 247.964 134.837 246.044 134.837C245.702 134.837 245.372 134.826 245.052 134.805C244.753 134.762 244.444 134.72 244.124 134.677C243.484 134.762 242.94 134.912 242.492 135.125C242.065 135.338 241.852 135.626 241.852 135.989C241.852 136.48 242.289 136.725 243.164 136.725H247.452C248.988 136.725 250.172 137.077 251.004 137.781C251.836 138.464 252.252 139.466 252.252 140.789C252.252 142.282 251.58 143.392 250.236 144.117C248.892 144.842 246.95 145.205 244.411 145.205ZM244.764 132.405C246.044 132.405 246.929 132.192 247.42 131.765C247.932 131.317 248.188 130.57 248.188 129.525C248.188 128.48 247.932 127.722 247.42 127.253C246.929 126.784 246.044 126.549 244.764 126.549C243.548 126.549 242.673 126.784 242.14 127.253C241.606 127.701 241.34 128.458 241.34 129.525C241.34 130.506 241.585 131.232 242.076 131.701C242.588 132.17 243.484 132.405 244.764 132.405ZM259.467 139.893C258.507 139.893 257.611 139.722 256.779 139.381C255.968 139.018 255.307 138.496 254.795 137.813C254.304 137.109 254.059 136.234 254.059 135.189C254.059 133.696 254.582 132.501 255.627 131.605C256.694 130.709 258.262 130.261 260.331 130.261H264.811V129.845C264.811 128.906 264.544 128.245 264.011 127.861C263.499 127.477 262.454 127.285 260.875 127.285C259.147 127.285 257.483 127.552 255.883 128.085V125.045C256.587 124.768 257.44 124.544 258.443 124.373C259.467 124.181 260.576 124.085 261.771 124.085C264.054 124.085 265.814 124.554 267.051 125.493C268.31 126.41 268.939 127.893 268.939 129.941V139.573H265.195L264.971 138.197C264.374 138.73 263.638 139.146 262.763 139.445C261.888 139.744 260.79 139.893 259.467 139.893ZM260.651 137.045C261.611 137.045 262.443 136.885 263.147 136.565C263.851 136.245 264.406 135.84 264.811 135.349V132.949H260.427C258.742 132.949 257.899 133.642 257.899 135.029C257.899 136.373 258.816 137.045 260.651 137.045ZM272.418 139.573V124.405H276.418L276.578 125.845C277.196 125.376 277.975 124.97 278.914 124.629C279.874 124.266 280.876 124.085 281.922 124.085C283.927 124.085 285.388 124.554 286.306 125.493C287.223 126.432 287.682 127.882 287.682 129.845V139.573H283.362V130.069C283.362 129.045 283.148 128.32 282.722 127.893C282.316 127.466 281.548 127.253 280.418 127.253C279.756 127.253 279.084 127.402 278.402 127.701C277.74 128 277.186 128.373 276.738 128.821V139.573H272.418ZM307.158 139.893C306.092 139.893 305.164 139.754 304.374 139.477C303.585 139.178 302.86 138.741 302.198 138.165L301.974 139.573H298.23V118.005H302.55V125.237C303.169 124.853 303.862 124.565 304.63 124.373C305.398 124.181 306.198 124.085 307.03 124.085C309.206 124.085 310.924 124.704 312.182 125.941C313.462 127.157 314.102 129.13 314.102 131.861C314.102 134.592 313.473 136.618 312.214 137.941C310.977 139.242 309.292 139.893 307.158 139.893ZM305.942 136.725C307.329 136.725 308.3 136.32 308.854 135.509C309.43 134.698 309.718 133.482 309.718 131.861C309.718 130.176 309.409 128.992 308.79 128.309C308.193 127.605 307.233 127.253 305.91 127.253C305.249 127.253 304.62 127.349 304.022 127.541C303.446 127.733 302.956 128.01 302.55 128.373V135.349C302.977 135.797 303.478 136.138 304.054 136.373C304.652 136.608 305.281 136.725 305.942 136.725ZM325.009 139.893C322.385 139.893 320.305 139.242 318.769 137.941C317.233 136.618 316.465 134.624 316.465 131.957C316.465 129.546 317.105 127.637 318.385 126.229C319.687 124.8 321.617 124.085 324.177 124.085C326.524 124.085 328.316 124.704 329.553 125.941C330.812 127.157 331.441 128.757 331.441 130.741V133.493H320.465C320.7 134.709 321.255 135.541 322.129 135.989C323.025 136.437 324.284 136.661 325.905 136.661C326.716 136.661 327.537 136.586 328.369 136.437C329.223 136.288 329.948 136.096 330.545 135.861V138.933C329.841 139.253 329.02 139.488 328.081 139.637C327.143 139.808 326.119 139.893 325.009 139.893ZM320.465 130.837H327.665V130.005C327.665 129.13 327.409 128.448 326.897 127.957C326.385 127.445 325.521 127.189 324.305 127.189C322.876 127.189 321.873 127.477 321.297 128.053C320.743 128.629 320.465 129.557 320.465 130.837ZM338.673 139.893C337.201 139.893 336.124 139.552 335.441 138.869C334.78 138.186 334.449 137.098 334.449 135.605V118.005H338.769V135.253C338.769 135.786 338.876 136.16 339.089 136.373C339.302 136.565 339.612 136.661 340.017 136.661C340.572 136.661 341.073 136.586 341.521 136.437V139.413C340.71 139.733 339.761 139.893 338.673 139.893ZM348.748 139.893C347.788 139.893 346.892 139.722 346.06 139.381C345.25 139.018 344.588 138.496 344.076 137.813C343.586 137.109 343.34 136.234 343.34 135.189C343.34 133.696 343.863 132.501 344.908 131.605C345.975 130.709 347.543 130.261 349.612 130.261H354.092V129.845C354.092 128.906 353.826 128.245 353.292 127.861C352.78 127.477 351.735 127.285 350.156 127.285C348.428 127.285 346.764 127.552 345.164 128.085V125.045C345.868 124.768 346.722 124.544 347.724 124.373C348.748 124.181 349.858 124.085 351.052 124.085C353.335 124.085 355.095 124.554 356.332 125.493C357.591 126.41 358.22 127.893 358.22 129.941V139.573H354.476L354.252 138.197C353.655 138.73 352.919 139.146 352.044 139.445C351.17 139.744 350.071 139.893 348.748 139.893ZM349.932 137.045C350.892 137.045 351.724 136.885 352.428 136.565C353.132 136.245 353.687 135.84 354.092 135.349V132.949H349.708C348.023 132.949 347.18 133.642 347.18 135.029C347.18 136.373 348.098 137.045 349.932 137.045ZM363.683 121.621V118.229H368.387V121.621H363.683ZM363.139 147.061C361.795 147.061 360.643 146.869 359.683 146.485V143.509C360.024 143.616 360.355 143.69 360.675 143.733C361.016 143.797 361.326 143.829 361.603 143.829C362.478 143.829 363.107 143.648 363.491 143.285C363.875 142.944 364.067 142.389 364.067 141.621V127.605H361.795L362.179 124.405H368.387V142.037C368.387 143.53 367.95 144.736 367.075 145.653C366.222 146.592 364.91 147.061 363.139 147.061ZM376.842 139.893C375.882 139.893 374.986 139.722 374.154 139.381C373.343 139.018 372.682 138.496 372.17 137.813C371.679 137.109 371.434 136.234 371.434 135.189C371.434 133.696 371.957 132.501 373.002 131.605C374.069 130.709 375.637 130.261 377.706 130.261H382.186V129.845C382.186 128.906 381.919 128.245 381.386 127.861C380.874 127.477 379.829 127.285 378.25 127.285C376.522 127.285 374.858 127.552 373.258 128.085V125.045C373.962 124.768 374.815 124.544 375.818 124.373C376.842 124.181 377.951 124.085 379.146 124.085C381.429 124.085 383.189 124.554 384.426 125.493C385.685 126.41 386.314 127.893 386.314 129.941V139.573H382.57L382.346 138.197C381.749 138.73 381.013 139.146 380.138 139.445C379.263 139.744 378.165 139.893 376.842 139.893ZM378.026 137.045C378.986 137.045 379.818 136.885 380.522 136.565C381.226 136.245 381.781 135.84 382.186 135.349V132.949H377.802C376.117 132.949 375.274 133.642 375.274 135.029C375.274 136.373 376.191 137.045 378.026 137.045ZM389.793 139.573V124.405H393.793L393.985 125.973C394.667 125.546 395.51 125.162 396.513 124.821C397.537 124.458 398.539 124.213 399.521 124.085V127.349C398.945 127.434 398.315 127.562 397.633 127.733C396.95 127.904 396.299 128.096 395.681 128.309C395.062 128.522 394.539 128.746 394.113 128.981V139.573H389.793Z" fill="#FFBD5A"/>
<path d="M188.84 177.893C187.091 177.893 185.789 177.434 184.936 176.517C184.104 175.6 183.688 174.352 183.688 172.773V165.733H181.544V162.405H183.688V159.141L188.008 157.861V162.405H191.848L191.592 165.733H188.008V172.485C188.008 173.317 188.2 173.893 188.584 174.213C188.968 174.512 189.565 174.661 190.376 174.661C190.973 174.661 191.592 174.554 192.232 174.341V177.317C191.763 177.509 191.251 177.648 190.696 177.733C190.141 177.84 189.523 177.893 188.84 177.893ZM199.217 177.893C198.257 177.893 197.361 177.722 196.529 177.381C195.718 177.018 195.057 176.496 194.545 175.813C194.054 175.109 193.809 174.234 193.809 173.189C193.809 171.696 194.332 170.501 195.377 169.605C196.444 168.709 198.012 168.261 200.081 168.261H204.561V167.845C204.561 166.906 204.294 166.245 203.761 165.861C203.249 165.477 202.204 165.285 200.625 165.285C198.897 165.285 197.233 165.552 195.633 166.085V163.045C196.337 162.768 197.19 162.544 198.193 162.373C199.217 162.181 200.326 162.085 201.521 162.085C203.804 162.085 205.564 162.554 206.801 163.493C208.06 164.41 208.689 165.893 208.689 167.941V177.573H204.945L204.721 176.197C204.124 176.73 203.388 177.146 202.513 177.445C201.638 177.744 200.54 177.893 199.217 177.893ZM200.401 175.045C201.361 175.045 202.193 174.885 202.897 174.565C203.601 174.245 204.156 173.84 204.561 173.349V170.949H200.177C198.492 170.949 197.649 171.642 197.649 173.029C197.649 174.373 198.566 175.045 200.401 175.045ZM212.168 177.573V162.405H216.168L216.328 163.845C216.946 163.376 217.725 162.97 218.664 162.629C219.624 162.266 220.626 162.085 221.672 162.085C223.677 162.085 225.138 162.554 226.056 163.493C226.973 164.432 227.432 165.882 227.432 167.845V177.573H223.112V168.069C223.112 167.045 222.898 166.32 222.472 165.893C222.066 165.466 221.298 165.253 220.168 165.253C219.506 165.253 218.834 165.402 218.152 165.701C217.49 166 216.936 166.373 216.488 166.821V177.573H212.168ZM230.949 184.485V162.405H234.693L234.917 163.813C235.578 163.258 236.304 162.832 237.093 162.533C237.882 162.234 238.81 162.085 239.877 162.085C242.096 162.085 243.802 162.693 244.997 163.909C246.213 165.104 246.821 167.066 246.821 169.797C246.821 172.528 246.17 174.565 244.869 175.909C243.589 177.232 241.84 177.893 239.621 177.893C237.914 177.893 236.464 177.509 235.269 176.741V184.485H230.949ZM238.533 174.725C239.813 174.725 240.784 174.33 241.445 173.541C242.106 172.752 242.437 171.514 242.437 169.829C242.437 168.208 242.138 167.045 241.541 166.341C240.944 165.616 239.984 165.253 238.661 165.253C237.338 165.253 236.208 165.712 235.269 166.629V173.573C235.717 173.914 236.186 174.192 236.677 174.405C237.189 174.618 237.808 174.725 238.533 174.725ZM254.592 177.893C253.632 177.893 252.736 177.722 251.904 177.381C251.093 177.018 250.432 176.496 249.92 175.813C249.429 175.109 249.184 174.234 249.184 173.189C249.184 171.696 249.707 170.501 250.752 169.605C251.819 168.709 253.387 168.261 255.456 168.261H259.936V167.845C259.936 166.906 259.669 166.245 259.136 165.861C258.624 165.477 257.579 165.285 256 165.285C254.272 165.285 252.608 165.552 251.008 166.085V163.045C251.712 162.768 252.565 162.544 253.568 162.373C254.592 162.181 255.701 162.085 256.896 162.085C259.179 162.085 260.939 162.554 262.176 163.493C263.435 164.41 264.064 165.893 264.064 167.941V177.573H260.32L260.096 176.197C259.499 176.73 258.763 177.146 257.888 177.445C257.013 177.744 255.915 177.893 254.592 177.893ZM255.776 175.045C256.736 175.045 257.568 174.885 258.272 174.565C258.976 174.245 259.531 173.84 259.936 173.349V170.949H255.552C253.867 170.949 253.024 171.642 253.024 173.029C253.024 174.373 253.941 175.045 255.776 175.045ZM283.502 177.893C282.435 177.893 281.507 177.754 280.718 177.477C279.929 177.178 279.203 176.741 278.542 176.165L278.318 177.573H274.574V156.005H278.894V163.237C279.513 162.853 280.206 162.565 280.974 162.373C281.742 162.181 282.542 162.085 283.374 162.085C285.55 162.085 287.267 162.704 288.526 163.941C289.806 165.157 290.446 167.13 290.446 169.861C290.446 172.592 289.817 174.618 288.558 175.941C287.321 177.242 285.635 177.893 283.502 177.893ZM282.286 174.725C283.673 174.725 284.643 174.32 285.198 173.509C285.774 172.698 286.062 171.482 286.062 169.861C286.062 168.176 285.753 166.992 285.134 166.309C284.537 165.605 283.577 165.253 282.254 165.253C281.593 165.253 280.963 165.349 280.366 165.541C279.79 165.733 279.299 166.01 278.894 166.373V173.349C279.321 173.797 279.822 174.138 280.398 174.373C280.995 174.608 281.625 174.725 282.286 174.725ZM293.88 159.621V156.229H298.584V159.621H293.88ZM294.232 177.573V165.605H291.96L292.344 162.405H298.552V177.573H294.232ZM306.998 177.893C306.038 177.893 305.142 177.722 304.31 177.381C303.5 177.018 302.838 176.496 302.326 175.813C301.836 175.109 301.59 174.234 301.59 173.189C301.59 171.696 302.113 170.501 303.158 169.605C304.225 168.709 305.793 168.261 307.862 168.261H312.342V167.845C312.342 166.906 312.076 166.245 311.542 165.861C311.03 165.477 309.985 165.285 308.406 165.285C306.678 165.285 305.014 165.552 303.414 166.085V163.045C304.118 162.768 304.972 162.544 305.974 162.373C306.998 162.181 308.108 162.085 309.302 162.085C311.585 162.085 313.345 162.554 314.582 163.493C315.841 164.41 316.47 165.893 316.47 167.941V177.573H312.726L312.502 176.197C311.905 176.73 311.169 177.146 310.294 177.445C309.42 177.744 308.321 177.893 306.998 177.893ZM308.182 175.045C309.142 175.045 309.974 174.885 310.678 174.565C311.382 174.245 311.937 173.84 312.342 173.349V170.949H307.958C306.273 170.949 305.43 171.642 305.43 173.029C305.43 174.373 306.348 175.045 308.182 175.045ZM322.48 183.205C321.818 183.205 321.232 183.162 320.72 183.077C320.208 183.013 319.706 182.885 319.216 182.693V179.653C319.578 179.781 319.909 179.866 320.208 179.909C320.528 179.952 320.848 179.973 321.168 179.973C322.042 179.973 322.714 179.77 323.184 179.365C323.674 178.96 324.165 178.277 324.656 177.317L317.872 162.405H322.384L326.832 172.709L331.248 162.405H335.728L329.744 176.517C329.189 177.84 328.581 179.002 327.92 180.005C327.28 181.029 326.522 181.818 325.648 182.373C324.773 182.928 323.717 183.205 322.48 183.205ZM340.811 177.893C339.851 177.893 338.955 177.722 338.123 177.381C337.312 177.018 336.651 176.496 336.139 175.813C335.648 175.109 335.403 174.234 335.403 173.189C335.403 171.696 335.925 170.501 336.971 169.605C338.037 168.709 339.605 168.261 341.675 168.261H346.155V167.845C346.155 166.906 345.888 166.245 345.355 165.861C344.843 165.477 343.797 165.285 342.219 165.285C340.491 165.285 338.827 165.552 337.227 166.085V163.045C337.931 162.768 338.784 162.544 339.787 162.373C340.811 162.181 341.92 162.085 343.115 162.085C345.397 162.085 347.157 162.554 348.395 163.493C349.653 164.41 350.283 165.893 350.283 167.941V177.573H346.539L346.315 176.197C345.717 176.73 344.981 177.146 344.107 177.445C343.232 177.744 342.133 177.893 340.811 177.893ZM341.995 175.045C342.955 175.045 343.787 174.885 344.491 174.565C345.195 174.245 345.749 173.84 346.155 173.349V170.949H341.771C340.085 170.949 339.243 171.642 339.243 173.029C339.243 174.373 340.16 175.045 341.995 175.045ZM353.122 177.573V174.341H356.641V177.573H353.122Z" fill="#FFBD5A"/>
</svg>
